<?xml version="1.0" encoding="utf-8"?>
<!-- Generator: Adobe Adobe Illustrator 24.2.0, SVG Export Plug-In . SVG Version: 6.00 Build 0)  -->
<svg version="1.1" xmlns="http://www.w3.org/2000/svg" xmlns:xlink="http://www.w3.org/1999/xlink" x="0px" y="0px" width="288px"
	 height="288px" viewBox="0 0 288 288" style="enable-background:new 0 0 288 288;" xml:space="preserve">
<style type="text/css">
	.st0{fill:none;stroke:#D1D1D1;stroke-width:14;stroke-linecap:round;stroke-miterlimit:10;}
	.st1{fill:#C2C2C2;}
	.st2{fill:#FFFFFF;stroke:#FFFFFF;stroke-width:3.2;stroke-miterlimit:10;}
	.st3{display:none;opacity:0.251;fill:none;stroke:#FFFFFF;stroke-width:8;stroke-miterlimit:10;}
	.st4{fill:#FFFFFF;}
	.st5{fill:#D1D1D1;}
</style>
<g id="Layer_1">
	<path class="st0" d="M160.04,103.3c23.8-15.55,62.1-10.7,84.05,6.42"/>
	<polygon class="st1" points="164.39,108.53 157.79,95.8 164.32,92.87 170.93,105.59 	"/>
	<path class="st0" d="M258.63,240.94c-30.4,34.27-79.28,36.94-113.65,9.04c-30.06-24.4-35.93-64.78-28.93-90.44
		c1.26-4.63,1.06-4.17,2.01-6.93"/>
	<g>
		<g>
			<path class="st2" d="M207.04,181.67L124.98,23.12c-0.91-1.76-2.52-2.99-4.37-3.56c-3.63-1.42-7.85,0.05-9.56,3.39L30.09,181.59
				c-1.76,3.44-0.18,7.55,3.52,9.19s8.12,0.17,9.87-3.27l74.54-146.05l75.66,146.2c1.78,3.43,6.2,4.87,9.89,3.22h0
				C207.26,189.22,208.81,185.1,207.04,181.67z"/>
		</g>
	</g>
	<ellipse class="st3" cx="171.06" cy="164.36" rx="42.38" ry="47.63"/>
	<ellipse class="st4" cx="35.93" cy="116.68" rx="0.05" ry="0.05"/>
	<ellipse class="st5" cx="134.89" cy="122.9" rx="7.32" ry="6.81"/>
</g>
<g id="Layer_2">
</g>
<g id="Layer_3">
</g>
</svg>
